HIERARCHY
ROOT Hips
{
  OFFSET 51.5477 97.0385 45.1888
  CHANNELS 6 Xposition Yposition Zposition Zrotation Xrotation Yrotation
  JOINT spine
  {
    OFFSET 0 7.96568 0.458067
    CHANNELS 3 Zrotation Xrotation Yrotation
    JOINT spine1
    {
      OFFSET 0 10.2431 0
      CHANNELS 3 Zrotation Xrotation Yrotation
      JOINT spine2
      {
        OFFSET 0 9.81475 0
        CHANNELS 3 Zrotation Xrotation Yrotation
        JOINT Neck
        {
          OFFSET 0 25.1986 1.20138
          CHANNELS 3 Zrotation Xrotation Yrotation
          JOINT Head
          {
            OFFSET 0 7.61315 0
            CHANNELS 3 Zrotation Xrotation Yrotation
            End Site
            {
              OFFSET 0 18.4281 -6.07733
            }
          }
        }
        JOINT RightShoulder
        {
          OFFSET -4.1327 10.5992 -0.575451
          CHANNELS 3 Zrotation Xrotation Yrotation
          JOINT RightArm
          {
            OFFSET 0 13.9018 0
            CHANNELS 3 Zrotation Xrotation Yrotation
            JOINT RightArmRoll
            {
              OFFSET 0 7.01789 0
              CHANNELS 3 Zrotation Xrotation Yrotation
              JOINT RightForeArm
              {
                OFFSET 0 20.4406 0
                CHANNELS 3 Zrotation Xrotation Yrotation
                JOINT RightForeArmRoll
                {
                  OFFSET 0 7.87515 0
                  CHANNELS 3 Zrotation Xrotation Yrotation
                  JOINT RightHand
                  {
                    OFFSET 0 15.8037 0
                    CHANNELS 3 Zrotation Xrotation Yrotation
                    End Site
                    {
                      OFFSET 0 0 0
                    }
                  }
                }
              }
            }
          }
        }
        JOINT LeftShoulder
        {
          OFFSET 4.1327 10.5992 -0.575451
          CHANNELS 3 Zrotation Xrotation Yrotation
          JOINT LeftArm
          {
            OFFSET 0 13.9018 0
            CHANNELS 3 Zrotation Xrotation Yrotation
            JOINT LeftArmRoll
            {
              OFFSET 0 7.01788 0
              CHANNELS 3 Zrotation Xrotation Yrotation
              JOINT LeftForeArm
              {
                OFFSET 0 20.4406 0
                CHANNELS 3 Zrotation Xrotation Yrotation
                JOINT LeftForeArmRoll
                {
                  OFFSET 0 7.87515 0
                  CHANNELS 3 Zrotation Xrotation Yrotation
                  JOINT LeftHand
                  {
                    OFFSET 0 15.8037 0
                    CHANNELS 3 Zrotation Xrotation Yrotation
                    End Site
                    {
                      OFFSET 0 0 0
                    }
                  }
                }
              }
            }
          }
        }
      }
    }
  }
  JOINT RightUpLeg
  {
    OFFSET -7.06048 -1.2947 -1.08609
    CHANNELS 3 Zrotation Xrotation Yrotation
    JOINT RightUpLegRoll
    {
      OFFSET 0 18.5308 0
      CHANNELS 3 Zrotation Xrotation Yrotation
      JOINT RightLeg
      {
        OFFSET 0 -22.9476 0
        CHANNELS 3 Zrotation Xrotation Yrotation
        JOINT RightLegRoll
        {
          OFFSET 0 23.0226 0
          CHANNELS 3 Zrotation Xrotation Yrotation
          JOINT RightFoot
          {
            OFFSET 0 19.1625 0
            CHANNELS 3 Zrotation Xrotation Yrotation
            JOINT RightToeBase
            {
              OFFSET 0 16.0188 0
              CHANNELS 3 Zrotation Xrotation Yrotation
              End Site
              {
                OFFSET 0.00678979 7.75782 -0.894207
              }
            }
          }
        }
      }
    }
  }
  JOINT LeftUpLeg
  {
    OFFSET 7.06048 -1.2947 -1.08609
    CHANNELS 3 Zrotation Xrotation Yrotation
    JOINT LeftUpLegRoll
    {
      OFFSET 0 18.5309 0
      CHANNELS 3 Zrotation Xrotation Yrotation
      JOINT LeftLeg
      {
        OFFSET 0 22.9475 0
        CHANNELS 3 Zrotation Xrotation Yrotation
        JOINT LeftLegRoll
        {
          OFFSET 0 23.2355 0
          CHANNELS 3 Zrotation Xrotation Yrotation
          JOINT LeftFoot
          {
            OFFSET 0 18.9496 0
            CHANNELS 3 Zrotation Xrotation Yrotation
            JOINT LeftToeBase
            {
              OFFSET 0 16.0188 0
              CHANNELS 3 Zrotation Xrotation Yrotation
              End Site
              {
                OFFSET -0.0304289 7.75782 -0.894207
              }
            }
          }
        }
      }
    }
  }
}
MOTION
Frames: 8
Frame Time: 0.00208333
50.1518 54.5248 0.789961 1.45652 -12.174 7.11083 0.271576 5.02036 -0.446508 0.613357 14.0621 -0.976186 0.628238 15.707 -0.989603 -11.3894 -13.7967 -1.51251 14.3374 28.076 -4.1972 54.9929 -4.40856 -2.45091 121.626 34.3132 -23.2825 3.95664e-006 -9.226e-007 2.32054e-006 14.6809 63.809 -12.7113 2.50071e-006 2.66851e-006 -2.99999 8.02948 -4.95159 0.697704 -60.2121 -9.59367 5.97817 -111.555 37.7534 41.8933 -7.81169e-006 -9.11453e-007 -7.06865e-006 -31.1161 71.2456 28.1952 5.41786e-006 1.76692e-005 3 -8.02907 -4.95099 -0.697506 129.458 72.4398 51.8268 180 1.52525e-005 178.357 -31.484 80.5304 33.6261 4.23732e-006 -5.42119e-006 2.27681 -18.1173 66.529 18.387 8.1818 26.7669 -1.41009 -160.122 79.1498 -19.0228 4.57705e-006 1.05463e-005 -1.50957 92.0658 -85.6629 90.7132 1.26356e-006 7.58204e-007 -1.95956 16.1166 62.9445 -16.0525 -8.13306 25.2328 3.48627 
50.1549 54.5343 0.778167 1.45259 -12.161 7.10802 0.273672 5.01766 -0.446687 0.616491 14.0558 -0.977012 0.631396 15.7008 -0.990524 -11.4122 -13.7934 -1.51243 14.3555 28.0755 -4.2011 54.9735 -4.40855 -2.44944 121.65 34.2948 -23.2834 3.95664e-006 -9.226e-007 2.32054e-006 14.6774 63.8313 -12.7148 2.50071e-006 2.66851e-006 -2.99999 8.02948 -4.95159 0.697704 -60.2354 -9.60119 5.98295 -111.528 37.7517 41.8976 -7.81169e-006 -9.11453e-007 -7.06865e-006 -31.1362 71.2597 28.2183 5.41786e-006 1.76692e-005 3 -8.02907 -4.95099 -0.697506 129.452 72.4613 51.8289 180 1.52525e-005 178.357 -31.5296 80.5341 33.6728 4.23732e-006 -5.42119e-006 2.27677 -18.1122 66.5222 18.381 8.18171 26.7657 -1.41193 -160.103 79.1647 -19.0388 4.57705e-006 1.05463e-005 -1.5096 92.0265 -85.6613 90.6724 1.26356e-006 7.58204e-007 -1.95956 16.1163 62.9419 -16.0509 -8.13306 25.2328 3.48627 
50.1493 54.5255 0.769465 1.44873 -12.1488 7.10536 0.275799 5.01508 -0.446875 0.619615 14.0498 -0.977904 0.634546 15.6947 -0.991512 -11.4349 -13.79 -1.51224 14.3736 28.0753 -4.20494 54.9535 -4.40851 -2.44792 121.675 34.2768 -23.2835 3.95664e-006 -9.226e-007 2.32054e-006 14.6731 63.8531 -12.7177 2.50071e-006 2.66851e-006 -2.99999 8.02948 -4.95159 0.697704 -60.2588 -9.60889 5.98784 -111.501 37.7503 41.9022 -7.81169e-006 -9.11453e-007 -7.06865e-006 -31.1567 71.2745 28.2422 5.41786e-006 1.76692e-005 3 -8.02907 -4.95099 -0.697506 129.446 72.4819 51.8304 180 1.52525e-005 178.357 -31.5747 80.5379 33.719 4.23732e-006 -5.42119e-006 2.27671 -18.107 66.5155 18.375 8.18162 26.7645 -1.41381 -160.086 79.1789 -19.0539 4.57705e-006 1.05463e-005 -1.50964 91.9901 -85.6596 90.6344 1.26356e-006 7.58204e-007 -1.95956 16.116 62.9393 -16.0493 -8.13306 25.2328 3.48627 
50.1501 54.5191 0.773823 1.44494 -12.1372 7.10279 0.277947 5.01259 -0.447068 0.622734 14.0439 -0.978843 0.63769 15.6889 -0.992548 -11.4576 -13.7866 -1.51198 14.3917 28.0754 -4.20874 54.9333 -4.40846 -2.44637 121.701 34.259 -23.2831 3.95664e-006 -9.226e-007 2.32054e-006 14.6683 63.8745 -12.7202 2.50071e-006 2.66851e-006 -2.99999 8.02948 -4.95159 0.697704 -60.2823 -9.61672 5.99281 -111.474 37.7493 41.907 -7.81169e-006 -9.11453e-007 -7.06865e-006 -31.1774 71.2898 28.2665 5.41786e-006 1.76692e-005 3 -8.02907 -4.95099 -0.697506 129.442 72.5019 51.8314 180 1.52525e-005 178.357 -31.6197 80.5418 33.7649 4.23732e-006 -5.42119e-006 2.27663 -18.1019 66.5089 18.369 8.18153 26.7632 -1.41571 -160.069 79.1927 -19.0685 4.57705e-006 1.05463e-005 -1.50969 91.9558 -85.6578 90.5985 1.26356e-006 7.58204e-007 -1.95955 16.1157 62.9367 -16.0477 -8.13306 25.2328 3.48627 
50.153 54.5268 0.768549 1.44118 -12.1259 7.10028 0.280108 5.01014 -0.447264 0.625849 14.0381 -0.979808 0.640832 15.6831 -0.99361 -11.4803 -13.7831 -1.51167 14.4098 28.0756 -4.21251 54.9128 -4.40839 -2.44479 121.728 34.2414 -23.2824 3.95664e-006 -9.226e-007 2.32054e-006 14.6633 63.8956 -12.7225 2.50071e-006 2.66851e-006 -2.99999 8.02948 -4.95159 0.697704 -60.3059 -9.62463 5.99783 -111.447 37.7484 41.912 -7.81169e-006 -9.11453e-007 -7.06865e-006 -31.1983 71.3053 28.291 5.41786e-006 1.76692e-005 3 -8.02907 -4.95099 -0.697506 129.437 72.5215 51.8321 180 1.52525e-005 178.357 -31.6645 80.5457 33.8106 4.23732e-006 -5.42119e-006 2.27654 -18.0967 66.5022 18.363 8.18144 26.762 -1.41761 -160.052 79.2061 -19.0828 4.57705e-006 1.05463e-005 -1.50974 91.9225 -85.656 90.5636 1.26356e-006 7.58204e-007 -1.95954 16.1155 62.9341 -16.0461 -8.13306 25.2328 3.48627 
50.1509 54.5195 0.766449 1.43742 -12.1147 7.09779 0.282271 5.00771 -0.447461 0.628963 14.0323 -0.98078 0.643972 15.6773 -0.994678 -11.503 -13.7797 -1.51136 14.4279 28.0758 -4.21627 54.8923 -4.40833 -2.44321 121.754 34.2238 -23.2816 3.95664e-006 -9.226e-007 2.32054e-006 14.6581 63.9168 -12.7247 2.50071e-006 2.66851e-006 -2.99999 8.02948 -4.95159 0.697704 -60.3296 -9.63255 6.00285 -111.42 37.7475 41.9171 -7.81169e-006 -9.11453e-007 -7.06865e-006 -31.2193 71.321 28.3157 5.41786e-006 1.76692e-005 3 -8.02907 -4.95099 -0.697506 129.433 72.541 51.8328 180 1.52525e-005 178.357 -31.7093 80.5496 33.8564 4.23732e-006 -5.42119e-006 2.27646 -18.0915 66.4955 18.357 8.18135 26.7607 -1.41952 -160.036 79.2195 -19.097 4.57705e-006 1.05463e-005 -1.50979 91.8896 -85.6542 90.5291 1.26356e-006 7.58204e-007 -1.95953 16.1152 62.9315 -16.0445 -8.13306 25.2328 3.48627 
50.1503 54.5164 0.75568 1.43366 -12.1033 7.09527 0.284428 5.00525 -0.447656 0.632078 14.0265 -0.981738 0.647113 15.6715 -0.995734 -11.5257 -13.7762 -1.51106 14.4459 28.076 -4.22005 54.8719 -4.40826 -2.44164 121.78 34.2061 -23.281 3.95664e-006 -9.226e-007 2.32054e-006 14.6531 63.938 -12.727 2.50071e-006 2.66851e-006 -2.99999 8.02948 -4.95159 0.697704 -60.3532 -9.64043 6.00786 -111.393 37.7466 41.922 -7.81169e-006 -9.11453e-007 -7.06865e-006 -31.2403 71.3364 28.3403 5.41786e-006 1.76692e-005 3 -8.02907 -4.95099 -0.697506 129.428 72.5607 51.8337 180 1.52525e-005 178.357 -31.7542 80.5535 33.9022 4.23732e-006 -5.42119e-006 2.27637 -18.0863 66.4889 18.351 8.18126 26.7594 -1.42143 -160.019 79.233 -19.1114 4.57705e-006 1.05463e-005 -1.50985 91.8562 -85.6523 90.494 1.26356e-006 7.58204e-007 -1.95952 16.1149 62.929 -16.0429 -8.13306 25.2328 3.48627 
50.1509 54.5241 0.743433 1.42985 -12.0916 7.09268 0.28657 5.00274 -0.447848 0.635198 14.0206 -0.982664 0.650258 15.6656 -0.996755 -11.5485 -13.7728 -1.51082 14.464 28.076 -4.22385 54.8517 -4.40821 -2.44009 121.806 34.1883 -23.2807 3.95664e-006 -9.226e-007 2.32054e-006 14.6485 63.9595 -12.7296 2.50071e-006 2.66851e-006 -2.99999 8.02948 -4.95159 0.697704 -60.3767 -9.64822 6.01281 -111.366 37.7455 41.9268 -7.81169e-006 -9.11453e-007 -7.06865e-006 -31.2611 71.3516 28.3646 5.41786e-006 1.76692e-005 3 -8.02907 -4.95099 -0.697506 129.423 72.5808 51.8348 180 1.52525e-005 178.357 -31.7994 80.5573 33.9484 4.23732e-006 -5.42119e-006 2.2763 -18.0811 66.4822 18.345 8.18117 26.7582 -1.42332 -160.002 79.2468 -19.1263 4.57705e-006 1.05463e-005 -1.50989 91.8213 -85.6506 90.4575 1.26356e-006 7.58204e-007 -1.95952 16.1146 62.9264 -16.0413 -8.13306 25.2328 3.48627 
